PathFileType	4	(X/Y/Z)	TVC_41_BWA_04_walk_RCNL2025.trc
DataRate	CameraRate	NumFrames	NumMarkers	Units	OrigDataRate	OrigDataStartFrame	OrigNumFrames
100	100	6	27	mm	100	415	553
Frame#	Time	R_Shoulder			L_Shoulder			C7			J_Notch			R_Elbow			L_Elbow			R_Wrist			L_Wrist			R_Asis			L_Asis			R_Psis			L_Psis			Sacral			Thoracic			Sternum			R_Thigh_Lateral			R_Knee_Lateral			R_Shank_Lateral			R_Ankle_Lateral			R_Heel			R_Toe			L_Thigh_Lateral			L_Knee_Lateral			L_Shank_Lateral			L_Ankle_Lateral			L_Heel			L_Toe		
		X1	Y1	Z1	X2	Y2	Z2	X3	Y3	Z3	X4	Y4	Z4	X5	Y5	Z5	X6	Y6	Z6	X7	Y7	Z7	X8	Y8	Z8	X9	Y9	Z9	X10	Y10	Z10	X11	Y11	Z11	X12	Y12	Z12	X13	Y13	Z13	X14	Y14	Z14	X15	Y15	Z15	X16	Y16	Z16	X17	Y17	Z17	X18	Y18	Z18	X19	Y19	Z19	X20	Y20	Z20	X21	Y21	Z21	X22	Y22	Z22	X23	Y23	Z23	X24	Y24	Z24	X25	Y25	Z25	X26	Y26	Z26	X27	Y27	Z27
415	4.14000000	-68.741928	1257.189453	351.385895	28.337597	1269.564331	28.561869	-57.561485	1330.599976	180.085495	44.049530	1209.055664	214.839432	-200.330963	990.830017	341.412659	-28.366497	984.255066	-44.366833	-23.427304	919.817261	375.557343	81.716446	799.206177	-41.806511	-81.683128	893.021118	303.391815	9.912151	849.765869	82.081703	-198.685440	902.596069	193.747314	-174.257568	885.836914	106.301773	-186.471504	894.216492	150.024544	-136.267059	1040.660889	143.264557	57.603905	1026.668457	205.614868	-125.559906	667.024475	392.429993	-130.705811	432.304474	315.527832	-200.207520	313.697113	371.843323	-229.713684	107.143074	300.721466	-272.368835	94.517830	244.093735	-131.493149	46.855488	318.679443	-43.925205	589.549744	-20.299595	0.879867	405.909943	79.810913	-20.739071	269.141907	18.397316	-67.685097	64.710129	83.070663	-115.702110	46.797703	118.515984	52.216999	38.208607	112.534309
416	4.15000000	-67.633324	1257.882202	349.712311	30.537416	1270.864502	27.264996	-55.759045	1331.499634	178.566559	45.789101	1210.093018	213.483200	-199.052200	991.480835	338.876556	-25.095194	985.609924	-46.446995	-22.728671	920.471832	373.489532	85.706951	801.093811	-43.905148	-79.625885	893.220825	301.894745	12.769239	850.811829	80.408173	-195.832458	902.821899	191.723038	-171.604431	886.220276	104.361382	-183.718445	894.521088	148.042210	-133.883362	1041.420166	140.989227	59.735832	1027.779541	204.065887	-121.369125	668.306335	391.214569	-126.503098	433.278717	314.921173	-196.726379	314.999786	371.323639	-227.731079	108.654175	300.357025	-270.489105	96.580223	243.829453	-130.331711	47.108688	318.665405	-43.139244	589.816772	-21.691021	-0.208353	406.083649	78.561928	-21.606304	269.113373	17.626757	-67.496735	64.605309	83.061722	-115.570343	46.722855	118.498940	52.417828	38.241138	112.585602
417	4.16000000	-66.506500	1258.513550	348.097412	32.632641	1272.108643	25.998255	-54.008278	1332.344849	177.105530	47.495224	1211.077759	212.147461	-197.761337	992.064941	336.448944	-21.969673	986.903137	-48.467438	-22.066781	920.991394	371.448242	89.600533	802.946930	-45.957489	-77.619911	893.376465	300.497864	15.531284	851.806763	78.752037	-193.045029	903.004517	189.799194	-169.069809	886.552185	102.522156	-181.057419	894.778351	146.160675	-131.610153	1042.099243	138.807892	61.818893	1028.836426	202.525009	-117.086349	669.494141	390.058411	-122.299164	434.186707	314.358337	-193.186035	316.213409	370.853912	-225.691971	110.090805	300.026398	-268.567993	98.533569	243.620667	-129.107269	47.357433	318.680725	-42.299740	590.023376	-23.034691	-1.238355	406.246552	77.317772	-22.409889	269.067108	16.869886	-67.323387	64.506775	83.091003	-115.457329	46.660889	118.522354	52.600018	38.264267	112.662270
418	4.17000000	-65.360123	1259.082031	346.542389	34.623375	1273.292480	24.761076	-52.307957	1333.133301	175.702377	49.168098	1212.006958	210.832932	-196.454910	992.580139	334.134399	-18.994734	988.130127	-50.426861	-21.429881	921.378387	369.439636	93.390446	804.758698	-47.963105	-75.664078	893.488708	299.199341	18.196035	852.747009	77.114716	-190.327026	903.143738	187.976227	-166.651611	886.832092	100.783752	-178.489319	894.987915	144.379990	-129.451141	1042.697632	136.725479	63.852531	1029.835815	200.993805	-112.735458	670.582703	388.956879	-118.110725	435.024811	313.835175	-189.610352	317.334137	370.422913	-223.601913	111.445930	299.720032	-266.599274	100.365326	243.447495	-127.821686	47.599915	318.724854	-41.394981	590.175110	-24.329281	-2.198721	406.394348	76.087608	-23.142427	269.000732	16.132278	-67.171326	64.417419	83.152046	-115.365204	46.613174	118.580566	52.758396	38.279579	112.758621
419	4.18000000	-64.193123	1259.586670	345.048065	36.510281	1274.411987	23.552774	-50.656666	1333.863037	174.356766	50.807949	1212.878296	209.540237	-195.129684	993.024719	331.936615	-16.174395	989.287354	-52.324329	-20.805192	921.637390	367.469513	97.070080	806.522736	-49.921986	-73.756630	893.558716	297.996307	20.761736	853.629517	75.497604	-187.681961	903.239990	186.253845	-164.347198	887.060120	99.145042	-176.014580	895.150055	142.699444	-127.408676	1043.216064	134.746033	65.836296	1030.775146	199.473816	-108.342888	671.568237	387.905151	-113.954712	435.790192	313.347137	-186.024094	318.359192	370.018829	-221.467102	112.713394	299.428040	-264.576843	102.064339	243.289413	-126.477730	47.834377	318.796814	-40.418835	590.277649	-25.574394	-3.079489	406.523407	74.879707	-23.798241	268.912628	15.418732	-67.044189	64.339363	83.237869	-115.293900	46.580387	118.667458	52.890350	38.288815	112.868828
420	4.19000000	-63.004688	1260.027100	343.614960	38.294559	1275.464233	22.372570	-49.052795	1334.532837	173.068100	52.415051	1213.689453	208.269852	-193.782669	993.397888	329.858612	-13.511864	990.371643	-54.159256	-20.179164	921.775085	365.543121	100.632965	808.232941	-51.834530	-71.895210	893.588013	296.885010	23.227114	854.451721	73.902054	-185.113007	903.294067	184.631027	-162.153473	887.237000	97.604202	-173.633240	895.265533	141.117615	-125.483643	1043.656372	132.872620	67.769844	1031.651978	197.966507	-103.937164	672.448364	386.898254	-109.848106	436.480713	312.889679	-182.452530	319.287109	369.629852	-219.294205	113.887978	299.140411	-262.494965	103.621040	243.125870	-125.079025	48.059132	318.895203	-39.370365	590.336426	-26.770487	-3.872270	406.630859	73.701408	-24.373291	268.801849	14.733255	-66.943298	64.273926	83.341362	-115.241547	46.562626	118.776787	52.995480	38.293732	112.987206
